M48
; DRILL file KiCad 10.0.4 date 2026-06-21T21:25:25
; FORMAT={-:-/ absolute / metric / decimal}
; #@! TF.CreationDate,2026-06-21T21:25:25-04:00
; #@! TF.GenerationSoftware,Kicad,Pcbnew,10.0.4
; #@! TF.FileFunction,Plated,1,2,PTH
FMAT,2
METRIC
; #@! TA.AperFunction,Plated,PTH,ViaDrill
T1C0.500
; #@! TA.AperFunction,Plated,PTH,ComponentDrill
T2C1.000
; #@! TA.AperFunction,Plated,PTH,ViaDrill
T3C1.016
; #@! TA.AperFunction,Plated,PTH,ComponentDrill
T4C1.016
; #@! TA.AperFunction,Plated,PTH,ComponentDrill
T5C1.100
%
G90
G05
T1
X98.5Y-55.9
X98.5Y-145.5
X99.5Y-101.0
X99.5Y-117.7
X99.8Y-110.0
X101.803Y-103.562
X102.0Y-118.5
X102.1Y-75.6
X102.2Y-86.4
X102.4Y-63.6
X102.7Y-94.4
X103.0Y-114.7
X105.3Y-116.4
X105.6Y-103.1
X105.9Y-122.7
X107.4Y-114.0
X107.4Y-116.862
X109.3Y-151.6
X110.7Y-117.2
X111.1Y-114.1
X113.7Y-133.0
X114.1Y-103.9
X114.2Y-122.4
X114.8Y-145.8
X115.1Y-97.6
X116.0Y-56.1
X116.2Y-110.3
X117.3Y-138.2
X118.4Y-91.4
X118.4Y-115.9
X118.7Y-120.2
X118.9Y-122.9
X119.5Y-131.0
X120.1Y-63.4
X120.2Y-106.4
X121.5Y-59.3
X121.6Y-104.175
X121.8Y-101.1
X121.8Y-124.4
X121.8Y-126.1
X122.4Y-97.2
X122.7Y-131.8
X122.8Y-89.0
X123.6Y-108.3
X123.8Y-99.2
X123.9Y-76.3
X124.5Y-124.4
X124.6Y-85.3
X124.8Y-90.0
X125.0Y-97.9
X125.0Y-126.1
X125.8Y-119.1
X125.9Y-114.4
X127.2Y-106.1
X127.518Y-78.848
X127.8Y-82.8
X128.3Y-146.0
X128.398Y-69.533
X128.4Y-127.1
X131.5Y-104.8
X132.6Y-68.7
X132.8Y-61.4
X132.8Y-125.7
X132.9Y-131.0
X133.2Y-97.3
X134.0Y-76.0
X134.4Y-109.4
X134.6Y-115.8
X135.5Y-66.0
X135.722Y-95.042
X135.9Y-120.6
X136.246Y-68.674
X136.978Y-93.821
X138.3Y-97.1
X138.4Y-92.7
X138.4Y-146.0
X138.5Y-77.9
X139.9Y-133.4
X139.9Y-135.9
X140.2Y-114.2
X140.3Y-62.1
X140.8Y-117.0
X141.749Y-60.827
X142.0Y-120.4
X142.6Y-93.9
X142.8Y-96.0
X142.8Y-100.0
X142.8Y-110.3
X143.6Y-130.8
X143.9Y-69.9
X143.9Y-108.1
X145.28Y-110.58
X146.7Y-69.9
X147.1Y-93.5
X147.515Y-114.212
X147.8Y-121.9
X148.374Y-103.767
X148.8Y-98.0
X149.0Y-126.7
X149.4Y-134.0
X149.8Y-96.1
X149.9Y-152.3
X150.4Y-109.1
X150.5Y-130.9
X151.6Y-62.1
X152.6Y-65.2
X153.1Y-88.4
X153.2Y-101.2
X153.7Y-114.4
X155.1Y-104.0
X155.201Y-107.08
X155.3Y-119.5
X155.4Y-68.6
X155.4Y-72.2
X155.4Y-75.7
X155.4Y-80.1
X156.0Y-62.9
X156.848Y-118.7
X157.527Y-66.469
X157.708Y-108.727
X157.8Y-57.2
X158.4Y-122.9
X162.2Y-64.5
X162.2Y-82.5
X162.3Y-67.5
X162.4Y-92.8
X162.9Y-77.8
X163.1Y-80.2
X163.2Y-113.1
X163.7Y-147.7
X164.1Y-110.8
X164.2Y-71.7
X164.6Y-121.3
X165.8Y-95.2
X166.3Y-130.9
X166.4Y-125.5
X168.4Y-136.1
X168.6Y-77.8
X169.7Y-119.5
X169.8Y-84.9
X169.8Y-90.2
X170.0Y-115.7
X170.5Y-130.6
X170.9Y-126.1
X171.338Y-121.183
X172.6Y-80.1
X173.0Y-77.8
X173.2Y-59.9
X173.424Y-131.627
X173.6Y-66.2
X173.9Y-135.5
X174.482Y-130.673
X175.4Y-119.6
X177.0Y-111.9
X177.197Y-79.951
X177.3Y-76.1
X177.7Y-115.7
X177.7Y-144.7
X178.233Y-78.543
X178.3Y-60.4
X178.5Y-82.1
X178.8Y-101.7
X179.5Y-109.6
X179.6Y-88.9
X179.6Y-91.7
X180.0Y-82.1
X180.1Y-77.4
X181.3Y-117.8
X181.6Y-82.1
X183.6Y-144.7
X183.8Y-116.9
X184.3Y-98.2
X184.4Y-88.3
X185.8Y-80.7
X185.8Y-89.0
X185.8Y-91.7
X186.7Y-70.9
X188.3Y-77.2
X188.4Y-151.5
X189.1Y-83.1
X189.15Y-90.325
X189.3Y-85.6
X189.3Y-88.6
X192.0Y-81.7
X192.3Y-119.3
X192.4Y-88.1
X192.4Y-93.1
X192.5Y-100.2
X194.18Y-94.1
X194.18Y-95.2
X194.18Y-140.8
X194.18Y-141.981
X194.5Y-144.6
X194.7Y-67.4
T2
X100.2Y-120.79
X100.2Y-123.33
X100.2Y-125.87
X100.2Y-128.41
X100.2Y-130.95
X100.2Y-133.49
X100.2Y-136.03
X100.2Y-138.57
X102.54Y-105.55
X102.54Y-108.09
X102.74Y-120.79
X102.74Y-123.33
X102.74Y-125.87
X102.74Y-128.41
X102.74Y-130.95
X102.74Y-133.49
X102.74Y-136.03
X102.74Y-138.57
X105.08Y-105.55
X105.08Y-108.09
X107.62Y-105.55
X107.62Y-108.09
X110.16Y-105.55
X110.16Y-108.09
X112.7Y-105.55
X112.7Y-108.09
X189.46Y-106.9
X189.46Y-109.44
X189.46Y-111.98
X189.46Y-114.52
X189.46Y-117.06
X189.96Y-61.0
X189.96Y-63.54
X189.96Y-66.08
X189.96Y-68.62
X189.96Y-71.16
X192.0Y-106.9
X192.0Y-109.44
X192.0Y-111.98
X192.0Y-114.52
X192.0Y-117.06
X192.5Y-61.0
X192.5Y-63.54
X192.5Y-66.08
X192.5Y-68.62
X192.5Y-71.16
T3
X111.8Y-128.4
X113.9Y-125.9
X133.8Y-113.098
T4
X130.66Y-113.1
X130.66Y-115.64
X130.66Y-118.18
X130.66Y-120.72
X130.66Y-123.26
X130.66Y-125.8
X130.66Y-128.34
X130.66Y-130.88
X130.66Y-133.42
X130.66Y-135.96
X130.66Y-138.5
X130.66Y-141.04
X130.66Y-143.58
X130.66Y-146.12
X145.9Y-113.1
X145.9Y-115.64
X145.9Y-118.18
X145.9Y-120.72
X145.9Y-123.26
X145.9Y-125.8
X145.9Y-128.34
X145.9Y-130.88
X145.9Y-133.42
X145.9Y-135.96
X145.9Y-138.5
X145.9Y-141.04
X145.9Y-143.58
X145.9Y-146.12
T5
X112.5Y-140.8
X112.5Y-143.3
X112.5Y-145.8
X117.551Y-79.947
X118.415Y-67.958
X118.415Y-70.458
X118.415Y-72.958
X120.051Y-79.947
X126.303Y-58.216
X126.303Y-60.756
X126.303Y-63.296
X126.303Y-65.836
X126.303Y-68.376
X126.303Y-70.916
X130.06Y-85.852
X130.06Y-88.392
X130.06Y-90.932
X130.06Y-93.472
X130.06Y-96.012
X130.06Y-98.552
X132.78Y-57.2
X135.32Y-57.2
X137.86Y-57.2
X140.22Y-76.2
X140.4Y-57.2
X142.76Y-76.2
X142.94Y-57.2
X145.3Y-76.2
X145.48Y-57.2
X148.02Y-57.2
X150.56Y-57.2
X153.1Y-57.2
X155.46Y-85.852
X155.46Y-88.392
X155.46Y-90.932
X155.46Y-93.472
X155.46Y-96.012
X155.46Y-98.552
X160.16Y-57.29
X160.16Y-59.83
X160.16Y-62.37
X160.16Y-64.91
X160.16Y-67.45
X160.16Y-69.99
X160.16Y-72.53
X160.16Y-75.07
X160.16Y-77.61
X160.16Y-80.15
X160.16Y-82.69
X160.16Y-85.23
X160.16Y-87.77
X160.16Y-90.31
X160.16Y-92.85
X160.16Y-95.39
X160.16Y-97.93
X160.16Y-100.47
X160.16Y-103.01
X160.16Y-105.55
X160.16Y-108.09
X160.16Y-110.63
X160.16Y-113.17
X160.16Y-115.71
X175.4Y-57.29
X175.4Y-59.83
X175.4Y-62.37
X175.4Y-64.91
X175.4Y-67.45
X175.4Y-69.99
X175.4Y-72.53
X175.4Y-75.07
X175.4Y-77.61
X175.4Y-80.15
X175.4Y-82.69
X175.4Y-85.23
X175.4Y-87.77
X175.4Y-90.31
X175.4Y-92.85
X175.4Y-95.39
X175.4Y-97.93
X175.4Y-100.47
X175.4Y-103.01
X175.4Y-105.55
X175.4Y-108.09
X175.4Y-110.63
X175.4Y-113.17
X175.4Y-115.71
X175.5Y-137.4
X176.275Y-125.6
X178.0Y-137.4
X178.775Y-125.6
X180.5Y-137.4
X181.275Y-125.6
X183.0Y-137.4
M30
