G04 #@! TF.GenerationSoftware,KiCad,Pcbnew,10.0.4*
G04 #@! TF.CreationDate,2026-06-21T21:25:22-04:00*
G04 #@! TF.ProjectId,T41-3_Main_Board,5434312d-335f-44d6-9169-6e5f426f6172,1.3*
G04 #@! TF.SameCoordinates,Original*
G04 #@! TF.FileFunction,Soldermask,Bot*
G04 #@! TF.FilePolarity,Negative*
%FSLAX46Y46*%
G04 Gerber Fmt 4.6, Leading zero omitted, Abs format (unit mm)*
G04 Created by KiCad (PCBNEW 10.0.4) date 2026-06-21 21:25:22*
%MOMM*%
%LPD*%
G01*
G04 APERTURE LIST*
G04 Aperture macros list*
%AMRoundRect*
0 Rectangle with rounded corners*
0 $1 Rounding radius*
0 $2 $3 $4 $5 $6 $7 $8 $9 X,Y pos of 4 corners*
0 Add a 4 corners polygon primitive as box body*
4,1,4,$2,$3,$4,$5,$6,$7,$8,$9,$2,$3,0*
0 Add four circle primitives for the rounded corners*
1,1,$1+$1,$2,$3*
1,1,$1+$1,$4,$5*
1,1,$1+$1,$6,$7*
1,1,$1+$1,$8,$9*
0 Add four rect primitives between the rounded corners*
20,1,$1+$1,$2,$3,$4,$5,0*
20,1,$1+$1,$4,$5,$6,$7,0*
20,1,$1+$1,$6,$7,$8,$9,0*
20,1,$1+$1,$8,$9,$2,$3,0*%
G04 Aperture macros list end*
%ADD10O,1.524000X1.524000*%
%ADD11C,1.700000*%
%ADD12C,2.100000*%
%ADD13C,1.524000*%
%ADD14RoundRect,0.250000X-0.600000X-0.600000X0.600000X-0.600000X0.600000X0.600000X-0.600000X0.600000X0*%
%ADD15R,1.600000X1.600000*%
%ADD16C,1.600000*%
%ADD17RoundRect,0.250000X0.600000X0.600000X-0.600000X0.600000X-0.600000X-0.600000X0.600000X-0.600000X0*%
%ADD18RoundRect,0.250000X0.600000X-0.600000X0.600000X0.600000X-0.600000X0.600000X-0.600000X-0.600000X0*%
G04 APERTURE END LIST*
D10*
X130660000Y-113100000D03*
X130660000Y-115640000D03*
X130660000Y-118180000D03*
X130660000Y-120720000D03*
X130660000Y-123260000D03*
X130660000Y-125800000D03*
X130660000Y-128340000D03*
X130660000Y-130880000D03*
X130660000Y-133420000D03*
X130660000Y-135960000D03*
X130660000Y-138500000D03*
X130660000Y-141040000D03*
X130660000Y-143580000D03*
X130660000Y-146120000D03*
X145900000Y-146120000D03*
X145900000Y-143580000D03*
X145900000Y-141040000D03*
X145900000Y-138500000D03*
X145900000Y-135960000D03*
X145900000Y-133420000D03*
X145900000Y-130880000D03*
X145900000Y-128340000D03*
X145900000Y-125800000D03*
X145900000Y-123260000D03*
X145900000Y-120720000D03*
X145900000Y-118180000D03*
X145900000Y-115640000D03*
X145900000Y-113100000D03*
D11*
X100611400Y-71251400D03*
X107611400Y-71251400D03*
X100620000Y-94120000D03*
X107620000Y-94120000D03*
D12*
X112500000Y-145800000D03*
X112500000Y-143300000D03*
X112500000Y-140800000D03*
D11*
X100611400Y-59821400D03*
X107611400Y-59821400D03*
D13*
X130060000Y-85852000D03*
X130060000Y-88392000D03*
X130060000Y-90932000D03*
X130060000Y-93472000D03*
X130060000Y-96012000D03*
X130060000Y-98552000D03*
X155460000Y-98552000D03*
X155460000Y-96012000D03*
X155460000Y-93472000D03*
X155460000Y-90932000D03*
X155460000Y-88392000D03*
X155460000Y-85852000D03*
X145300000Y-76200000D03*
X142760000Y-76200000D03*
X140220000Y-76200000D03*
D11*
X100611400Y-82681400D03*
X107611400Y-82681400D03*
D12*
X175500000Y-137400000D03*
X178000000Y-137400000D03*
X180500000Y-137400000D03*
X183000000Y-137400000D03*
X118415000Y-72958000D03*
X118415000Y-70458000D03*
X118415000Y-67958000D03*
D14*
X100200000Y-120790000D03*
D11*
X102740000Y-120790000D03*
X100200000Y-123330000D03*
X102740000Y-123330000D03*
X100200000Y-125870000D03*
X102740000Y-125870000D03*
X100200000Y-128410000D03*
X102740000Y-128410000D03*
X100200000Y-130950000D03*
X102740000Y-130950000D03*
X100200000Y-133490000D03*
X102740000Y-133490000D03*
X100200000Y-136030000D03*
X102740000Y-136030000D03*
X100200000Y-138570000D03*
X102740000Y-138570000D03*
D15*
X175400000Y-115710000D03*
D16*
X175400000Y-113170000D03*
X175400000Y-110630000D03*
X175400000Y-108090000D03*
X175400000Y-105550000D03*
X175400000Y-103010000D03*
X175400000Y-100470000D03*
X175400000Y-97930000D03*
X175400000Y-95390000D03*
X175400000Y-92850000D03*
X175400000Y-90310000D03*
X175400000Y-87770000D03*
X175400000Y-85230000D03*
X175400000Y-82690000D03*
X175400000Y-80150000D03*
X175400000Y-77610000D03*
X175400000Y-75070000D03*
X175400000Y-72530000D03*
X175400000Y-69990000D03*
X175400000Y-67450000D03*
X175400000Y-64910000D03*
X175400000Y-62370000D03*
X175400000Y-59830000D03*
X175400000Y-57290000D03*
X160160000Y-57290000D03*
X160160000Y-59830000D03*
X160160000Y-62370000D03*
X160160000Y-64910000D03*
X160160000Y-67450000D03*
X160160000Y-69990000D03*
X160160000Y-72530000D03*
X160160000Y-75070000D03*
X160160000Y-77610000D03*
X160160000Y-80150000D03*
X160160000Y-82690000D03*
X160160000Y-85230000D03*
X160160000Y-87770000D03*
X160160000Y-90310000D03*
X160160000Y-92850000D03*
X160160000Y-95390000D03*
X160160000Y-97930000D03*
X160160000Y-100470000D03*
X160160000Y-103010000D03*
X160160000Y-105550000D03*
X160160000Y-108090000D03*
X160160000Y-110630000D03*
X160160000Y-113170000D03*
X160160000Y-115710000D03*
D12*
X117551400Y-79946800D03*
X120051400Y-79946800D03*
D13*
X153100000Y-57200000D03*
X150560000Y-57200000D03*
X148020000Y-57200000D03*
X145480000Y-57200000D03*
X142940000Y-57200000D03*
X140400000Y-57200000D03*
X137860000Y-57200000D03*
X135320000Y-57200000D03*
X132780000Y-57200000D03*
X126303000Y-58216000D03*
X126303000Y-60756000D03*
X126303000Y-63296000D03*
X126303000Y-65836000D03*
X126303000Y-68376000D03*
X126303000Y-70916000D03*
D17*
X192500000Y-61000000D03*
D11*
X189960000Y-61000000D03*
X192500000Y-63540000D03*
X189960000Y-63540000D03*
X192500000Y-66080000D03*
X189960000Y-66080000D03*
X192500000Y-68620000D03*
X189960000Y-68620000D03*
X192500000Y-71160000D03*
X189960000Y-71160000D03*
D12*
X181275000Y-125600000D03*
X178775000Y-125600000D03*
X176275000Y-125600000D03*
D17*
X192000000Y-106900000D03*
D11*
X189460000Y-106900000D03*
X192000000Y-109440000D03*
X189460000Y-109440000D03*
X192000000Y-111980000D03*
X189460000Y-111980000D03*
X192000000Y-114520000D03*
X189460000Y-114520000D03*
X192000000Y-117060000D03*
X189460000Y-117060000D03*
D18*
X112700000Y-108090000D03*
D11*
X112700000Y-105550000D03*
X110160000Y-108090000D03*
X110160000Y-105550000D03*
X107620000Y-108090000D03*
X107620000Y-105550000D03*
X105080000Y-108090000D03*
X105080000Y-105550000D03*
X102540000Y-108090000D03*
X102540000Y-105550000D03*
M02*
