G04 #@! TF.GenerationSoftware,KiCad,Pcbnew,10.0.4*
G04 #@! TF.CreationDate,2026-06-21T21:25:22-04:00*
G04 #@! TF.ProjectId,T41-3_Main_Board,5434312d-335f-44d6-9169-6e5f426f6172,1.3*
G04 #@! TF.SameCoordinates,Original*
G04 #@! TF.FileFunction,Legend,Bot*
G04 #@! TF.FilePolarity,Positive*
%FSLAX46Y46*%
G04 Gerber Fmt 4.6, Leading zero omitted, Abs format (unit mm)*
G04 Created by KiCad (PCBNEW 10.0.4) date 2026-06-21 21:25:22*
%MOMM*%
%LPD*%
G01*
G04 APERTURE LIST*
G04 Aperture macros list*
%AMRoundRect*
0 Rectangle with rounded corners*
0 $1 Rounding radius*
0 $2 $3 $4 $5 $6 $7 $8 $9 X,Y pos of 4 corners*
0 Add a 4 corners polygon primitive as box body*
4,1,4,$2,$3,$4,$5,$6,$7,$8,$9,$2,$3,0*
0 Add four circle primitives for the rounded corners*
1,1,$1+$1,$2,$3*
1,1,$1+$1,$4,$5*
1,1,$1+$1,$6,$7*
1,1,$1+$1,$8,$9*
0 Add four rect primitives between the rounded corners*
20,1,$1+$1,$2,$3,$4,$5,0*
20,1,$1+$1,$4,$5,$6,$7,0*
20,1,$1+$1,$6,$7,$8,$9,0*
20,1,$1+$1,$8,$9,$2,$3,0*%
G04 Aperture macros list end*
%ADD10C,0.150000*%
%ADD11C,0.120000*%
%ADD12C,0.100000*%
%ADD13O,1.524000X1.524000*%
%ADD14C,1.700000*%
%ADD15C,2.100000*%
%ADD16C,1.524000*%
%ADD17RoundRect,0.250000X-0.600000X-0.600000X0.600000X-0.600000X0.600000X0.600000X-0.600000X0.600000X0*%
%ADD18R,1.600000X1.600000*%
%ADD19C,1.600000*%
%ADD20RoundRect,0.250000X0.600000X0.600000X-0.600000X0.600000X-0.600000X-0.600000X0.600000X-0.600000X0*%
%ADD21RoundRect,0.250000X0.600000X-0.600000X0.600000X0.600000X-0.600000X0.600000X-0.600000X-0.600000X0*%
G04 APERTURE END LIST*
D10*
X184410839Y-121422200D02*
X184267982Y-121469819D01*
X184267982Y-121469819D02*
X184029887Y-121469819D01*
X184029887Y-121469819D02*
X183934649Y-121422200D01*
X183934649Y-121422200D02*
X183887030Y-121374580D01*
X183887030Y-121374580D02*
X183839411Y-121279342D01*
X183839411Y-121279342D02*
X183839411Y-121184104D01*
X183839411Y-121184104D02*
X183887030Y-121088866D01*
X183887030Y-121088866D02*
X183934649Y-121041247D01*
X183934649Y-121041247D02*
X184029887Y-120993628D01*
X184029887Y-120993628D02*
X184220363Y-120946009D01*
X184220363Y-120946009D02*
X184315601Y-120898390D01*
X184315601Y-120898390D02*
X184363220Y-120850771D01*
X184363220Y-120850771D02*
X184410839Y-120755533D01*
X184410839Y-120755533D02*
X184410839Y-120660295D01*
X184410839Y-120660295D02*
X184363220Y-120565057D01*
X184363220Y-120565057D02*
X184315601Y-120517438D01*
X184315601Y-120517438D02*
X184220363Y-120469819D01*
X184220363Y-120469819D02*
X183982268Y-120469819D01*
X183982268Y-120469819D02*
X183839411Y-120517438D01*
X183506077Y-120469819D02*
X183267982Y-121469819D01*
X183267982Y-121469819D02*
X183077506Y-120755533D01*
X183077506Y-120755533D02*
X182887030Y-121469819D01*
X182887030Y-121469819D02*
X182648935Y-120469819D01*
X182267982Y-121469819D02*
X182267982Y-120469819D01*
X181934649Y-120469819D02*
X181363221Y-120469819D01*
X181648935Y-121469819D02*
X181648935Y-120469819D01*
X180458459Y-121374580D02*
X180506078Y-121422200D01*
X180506078Y-121422200D02*
X180648935Y-121469819D01*
X180648935Y-121469819D02*
X180744173Y-121469819D01*
X180744173Y-121469819D02*
X180887030Y-121422200D01*
X180887030Y-121422200D02*
X180982268Y-121326961D01*
X180982268Y-121326961D02*
X181029887Y-121231723D01*
X181029887Y-121231723D02*
X181077506Y-121041247D01*
X181077506Y-121041247D02*
X181077506Y-120898390D01*
X181077506Y-120898390D02*
X181029887Y-120707914D01*
X181029887Y-120707914D02*
X180982268Y-120612676D01*
X180982268Y-120612676D02*
X180887030Y-120517438D01*
X180887030Y-120517438D02*
X180744173Y-120469819D01*
X180744173Y-120469819D02*
X180648935Y-120469819D01*
X180648935Y-120469819D02*
X180506078Y-120517438D01*
X180506078Y-120517438D02*
X180458459Y-120565057D01*
X180029887Y-121469819D02*
X180029887Y-120469819D01*
X180029887Y-120946009D02*
X179458459Y-120946009D01*
X179458459Y-121469819D02*
X179458459Y-120469819D01*
X178220363Y-121469819D02*
X178220363Y-120469819D01*
X178220363Y-120469819D02*
X177887030Y-121184104D01*
X177887030Y-121184104D02*
X177553697Y-120469819D01*
X177553697Y-120469819D02*
X177553697Y-121469819D01*
X177125125Y-121184104D02*
X176648935Y-121184104D01*
X177220363Y-121469819D02*
X176887030Y-120469819D01*
X176887030Y-120469819D02*
X176553697Y-121469819D01*
X176363220Y-120469819D02*
X175791792Y-120469819D01*
X176077506Y-121469819D02*
X176077506Y-120469819D01*
X174887030Y-121469819D02*
X175220363Y-120993628D01*
X175458458Y-121469819D02*
X175458458Y-120469819D01*
X175458458Y-120469819D02*
X175077506Y-120469819D01*
X175077506Y-120469819D02*
X174982268Y-120517438D01*
X174982268Y-120517438D02*
X174934649Y-120565057D01*
X174934649Y-120565057D02*
X174887030Y-120660295D01*
X174887030Y-120660295D02*
X174887030Y-120803152D01*
X174887030Y-120803152D02*
X174934649Y-120898390D01*
X174934649Y-120898390D02*
X174982268Y-120946009D01*
X174982268Y-120946009D02*
X175077506Y-120993628D01*
X175077506Y-120993628D02*
X175458458Y-120993628D01*
X174458458Y-121469819D02*
X174458458Y-120469819D01*
X174077506Y-120469819D02*
X173410840Y-121469819D01*
X173410840Y-120469819D02*
X174077506Y-121469819D01*
X185106077Y-101769819D02*
X184534649Y-101769819D01*
X184820363Y-102769819D02*
X184820363Y-101769819D01*
X184201315Y-101769819D02*
X184201315Y-102579342D01*
X184201315Y-102579342D02*
X184153696Y-102674580D01*
X184153696Y-102674580D02*
X184106077Y-102722200D01*
X184106077Y-102722200D02*
X184010839Y-102769819D01*
X184010839Y-102769819D02*
X183820363Y-102769819D01*
X183820363Y-102769819D02*
X183725125Y-102722200D01*
X183725125Y-102722200D02*
X183677506Y-102674580D01*
X183677506Y-102674580D02*
X183629887Y-102579342D01*
X183629887Y-102579342D02*
X183629887Y-101769819D01*
X183153696Y-102769819D02*
X183153696Y-101769819D01*
X183153696Y-101769819D02*
X182582268Y-102769819D01*
X182582268Y-102769819D02*
X182582268Y-101769819D01*
X182106077Y-102246009D02*
X181772744Y-102246009D01*
X181629887Y-102769819D02*
X182106077Y-102769819D01*
X182106077Y-102769819D02*
X182106077Y-101769819D01*
X182106077Y-101769819D02*
X181629887Y-101769819D01*
X184929887Y-103646009D02*
X185263220Y-103646009D01*
X185263220Y-104169819D02*
X185263220Y-103169819D01*
X185263220Y-103169819D02*
X184787030Y-103169819D01*
X184406077Y-104169819D02*
X184406077Y-103169819D01*
X183453697Y-104169819D02*
X183929887Y-104169819D01*
X183929887Y-104169819D02*
X183929887Y-103169819D01*
X183263220Y-103169819D02*
X182691792Y-103169819D01*
X182977506Y-104169819D02*
X182977506Y-103169819D01*
X182358458Y-103646009D02*
X182025125Y-103646009D01*
X181882268Y-104169819D02*
X182358458Y-104169819D01*
X182358458Y-104169819D02*
X182358458Y-103169819D01*
X182358458Y-103169819D02*
X181882268Y-103169819D01*
X180882268Y-104169819D02*
X181215601Y-103693628D01*
X181453696Y-104169819D02*
X181453696Y-103169819D01*
X181453696Y-103169819D02*
X181072744Y-103169819D01*
X181072744Y-103169819D02*
X180977506Y-103217438D01*
X180977506Y-103217438D02*
X180929887Y-103265057D01*
X180929887Y-103265057D02*
X180882268Y-103360295D01*
X180882268Y-103360295D02*
X180882268Y-103503152D01*
X180882268Y-103503152D02*
X180929887Y-103598390D01*
X180929887Y-103598390D02*
X180977506Y-103646009D01*
X180977506Y-103646009D02*
X181072744Y-103693628D01*
X181072744Y-103693628D02*
X181453696Y-103693628D01*
X185606077Y-55769819D02*
X185272744Y-56769819D01*
X185272744Y-56769819D02*
X184939411Y-55769819D01*
X184415601Y-55769819D02*
X184225125Y-55769819D01*
X184225125Y-55769819D02*
X184129887Y-55817438D01*
X184129887Y-55817438D02*
X184034649Y-55912676D01*
X184034649Y-55912676D02*
X183987030Y-56103152D01*
X183987030Y-56103152D02*
X183987030Y-56436485D01*
X183987030Y-56436485D02*
X184034649Y-56626961D01*
X184034649Y-56626961D02*
X184129887Y-56722200D01*
X184129887Y-56722200D02*
X184225125Y-56769819D01*
X184225125Y-56769819D02*
X184415601Y-56769819D01*
X184415601Y-56769819D02*
X184510839Y-56722200D01*
X184510839Y-56722200D02*
X184606077Y-56626961D01*
X184606077Y-56626961D02*
X184653696Y-56436485D01*
X184653696Y-56436485D02*
X184653696Y-56103152D01*
X184653696Y-56103152D02*
X184606077Y-55912676D01*
X184606077Y-55912676D02*
X184510839Y-55817438D01*
X184510839Y-55817438D02*
X184415601Y-55769819D01*
X183082268Y-56769819D02*
X183558458Y-56769819D01*
X183558458Y-56769819D02*
X183558458Y-55769819D01*
X182748934Y-55769819D02*
X182748934Y-56579342D01*
X182748934Y-56579342D02*
X182701315Y-56674580D01*
X182701315Y-56674580D02*
X182653696Y-56722200D01*
X182653696Y-56722200D02*
X182558458Y-56769819D01*
X182558458Y-56769819D02*
X182367982Y-56769819D01*
X182367982Y-56769819D02*
X182272744Y-56722200D01*
X182272744Y-56722200D02*
X182225125Y-56674580D01*
X182225125Y-56674580D02*
X182177506Y-56579342D01*
X182177506Y-56579342D02*
X182177506Y-55769819D01*
X181701315Y-56769819D02*
X181701315Y-55769819D01*
X181701315Y-55769819D02*
X181367982Y-56484104D01*
X181367982Y-56484104D02*
X181034649Y-55769819D01*
X181034649Y-55769819D02*
X181034649Y-56769819D01*
X180558458Y-56246009D02*
X180225125Y-56246009D01*
X180082268Y-56769819D02*
X180558458Y-56769819D01*
X180558458Y-56769819D02*
X180558458Y-55769819D01*
X180558458Y-55769819D02*
X180082268Y-55769819D01*
X185129887Y-57719209D02*
X185463220Y-57719209D01*
X185463220Y-58243019D02*
X185463220Y-57243019D01*
X185463220Y-57243019D02*
X184987030Y-57243019D01*
X184606077Y-58243019D02*
X184606077Y-57243019D01*
X184129887Y-58243019D02*
X184129887Y-57243019D01*
X184129887Y-57243019D02*
X183558459Y-58243019D01*
X183558459Y-58243019D02*
X183558459Y-57243019D01*
X183082268Y-57719209D02*
X182748935Y-57719209D01*
X182606078Y-58243019D02*
X183082268Y-58243019D01*
X183082268Y-58243019D02*
X183082268Y-57243019D01*
X183082268Y-57243019D02*
X182606078Y-57243019D01*
X181558458Y-57243019D02*
X180987030Y-57243019D01*
X181272744Y-58243019D02*
X181272744Y-57243019D01*
X180653696Y-57243019D02*
X180653696Y-58052542D01*
X180653696Y-58052542D02*
X180606077Y-58147780D01*
X180606077Y-58147780D02*
X180558458Y-58195400D01*
X180558458Y-58195400D02*
X180463220Y-58243019D01*
X180463220Y-58243019D02*
X180272744Y-58243019D01*
X180272744Y-58243019D02*
X180177506Y-58195400D01*
X180177506Y-58195400D02*
X180129887Y-58147780D01*
X180129887Y-58147780D02*
X180082268Y-58052542D01*
X180082268Y-58052542D02*
X180082268Y-57243019D01*
X179606077Y-58243019D02*
X179606077Y-57243019D01*
X179606077Y-57243019D02*
X179034649Y-58243019D01*
X179034649Y-58243019D02*
X179034649Y-57243019D01*
X178558458Y-57719209D02*
X178225125Y-57719209D01*
X178082268Y-58243019D02*
X178558458Y-58243019D01*
X178558458Y-58243019D02*
X178558458Y-57243019D01*
X178558458Y-57243019D02*
X178082268Y-57243019D01*
X117344173Y-100892914D02*
X117844173Y-100892914D01*
X117844173Y-101678628D02*
X117844173Y-100178628D01*
X117844173Y-100178628D02*
X117129887Y-100178628D01*
X116558459Y-101678628D02*
X116558459Y-100178628D01*
X115129887Y-101678628D02*
X115844173Y-101678628D01*
X115844173Y-101678628D02*
X115844173Y-100178628D01*
X114844172Y-100178628D02*
X113987030Y-100178628D01*
X114415601Y-101678628D02*
X114415601Y-100178628D01*
X113487030Y-100892914D02*
X112987030Y-100892914D01*
X112772744Y-101678628D02*
X113487030Y-101678628D01*
X113487030Y-101678628D02*
X113487030Y-100178628D01*
X113487030Y-100178628D02*
X112772744Y-100178628D01*
X111272744Y-101678628D02*
X111772744Y-100964342D01*
X112129887Y-101678628D02*
X112129887Y-100178628D01*
X112129887Y-100178628D02*
X111558458Y-100178628D01*
X111558458Y-100178628D02*
X111415601Y-100250057D01*
X111415601Y-100250057D02*
X111344172Y-100321485D01*
X111344172Y-100321485D02*
X111272744Y-100464342D01*
X111272744Y-100464342D02*
X111272744Y-100678628D01*
X111272744Y-100678628D02*
X111344172Y-100821485D01*
X111344172Y-100821485D02*
X111415601Y-100892914D01*
X111415601Y-100892914D02*
X111558458Y-100964342D01*
X111558458Y-100964342D02*
X112129887Y-100964342D01*
X107807125Y-81421438D02*
X107807125Y-79421438D01*
X107807125Y-79421438D02*
X107140458Y-80850009D01*
X107140458Y-80850009D02*
X106473792Y-79421438D01*
X106473792Y-79421438D02*
X106473792Y-81421438D01*
X105521411Y-81421438D02*
X105521411Y-79421438D01*
X103426173Y-81230961D02*
X103521411Y-81326200D01*
X103521411Y-81326200D02*
X103807125Y-81421438D01*
X103807125Y-81421438D02*
X103997601Y-81421438D01*
X103997601Y-81421438D02*
X104283316Y-81326200D01*
X104283316Y-81326200D02*
X104473792Y-81135723D01*
X104473792Y-81135723D02*
X104569030Y-80945247D01*
X104569030Y-80945247D02*
X104664268Y-80564295D01*
X104664268Y-80564295D02*
X104664268Y-80278580D01*
X104664268Y-80278580D02*
X104569030Y-79897628D01*
X104569030Y-79897628D02*
X104473792Y-79707152D01*
X104473792Y-79707152D02*
X104283316Y-79516676D01*
X104283316Y-79516676D02*
X103997601Y-79421438D01*
X103997601Y-79421438D02*
X103807125Y-79421438D01*
X103807125Y-79421438D02*
X103521411Y-79516676D01*
X103521411Y-79516676D02*
X103426173Y-79611914D01*
X108010325Y-92953038D02*
X108010325Y-90953038D01*
X106867468Y-92953038D02*
X107724611Y-91810180D01*
X106867468Y-90953038D02*
X108010325Y-92095895D01*
X106010325Y-91905419D02*
X105343658Y-91905419D01*
X105057944Y-92953038D02*
X106010325Y-92953038D01*
X106010325Y-92953038D02*
X106010325Y-90953038D01*
X106010325Y-90953038D02*
X105057944Y-90953038D01*
X103819849Y-92000657D02*
X103819849Y-92953038D01*
X104486515Y-90953038D02*
X103819849Y-92000657D01*
X103819849Y-92000657D02*
X103153182Y-90953038D01*
X107083392Y-58650314D02*
X107273868Y-58555076D01*
X107273868Y-58555076D02*
X107464344Y-58364600D01*
X107464344Y-58364600D02*
X107750058Y-58078885D01*
X107750058Y-58078885D02*
X107940535Y-57983647D01*
X107940535Y-57983647D02*
X108131011Y-57983647D01*
X108035773Y-58459838D02*
X108226249Y-58364600D01*
X108226249Y-58364600D02*
X108416725Y-58174123D01*
X108416725Y-58174123D02*
X108511963Y-57793171D01*
X108511963Y-57793171D02*
X108511963Y-57126504D01*
X108511963Y-57126504D02*
X108416725Y-56745552D01*
X108416725Y-56745552D02*
X108226249Y-56555076D01*
X108226249Y-56555076D02*
X108035773Y-56459838D01*
X108035773Y-56459838D02*
X107654820Y-56459838D01*
X107654820Y-56459838D02*
X107464344Y-56555076D01*
X107464344Y-56555076D02*
X107273868Y-56745552D01*
X107273868Y-56745552D02*
X107178630Y-57126504D01*
X107178630Y-57126504D02*
X107178630Y-57793171D01*
X107178630Y-57793171D02*
X107273868Y-58174123D01*
X107273868Y-58174123D02*
X107464344Y-58364600D01*
X107464344Y-58364600D02*
X107654820Y-58459838D01*
X107654820Y-58459838D02*
X108035773Y-58459838D01*
X106416725Y-58364600D02*
X106131011Y-58459838D01*
X106131011Y-58459838D02*
X105654820Y-58459838D01*
X105654820Y-58459838D02*
X105464344Y-58364600D01*
X105464344Y-58364600D02*
X105369106Y-58269361D01*
X105369106Y-58269361D02*
X105273868Y-58078885D01*
X105273868Y-58078885D02*
X105273868Y-57888409D01*
X105273868Y-57888409D02*
X105369106Y-57697933D01*
X105369106Y-57697933D02*
X105464344Y-57602695D01*
X105464344Y-57602695D02*
X105654820Y-57507457D01*
X105654820Y-57507457D02*
X106035773Y-57412219D01*
X106035773Y-57412219D02*
X106226249Y-57316980D01*
X106226249Y-57316980D02*
X106321487Y-57221742D01*
X106321487Y-57221742D02*
X106416725Y-57031266D01*
X106416725Y-57031266D02*
X106416725Y-56840790D01*
X106416725Y-56840790D02*
X106321487Y-56650314D01*
X106321487Y-56650314D02*
X106226249Y-56555076D01*
X106226249Y-56555076D02*
X106035773Y-56459838D01*
X106035773Y-56459838D02*
X105559582Y-56459838D01*
X105559582Y-56459838D02*
X105273868Y-56555076D01*
X104416725Y-58459838D02*
X104416725Y-56459838D01*
X104416725Y-56459838D02*
X103940535Y-56459838D01*
X103940535Y-56459838D02*
X103654820Y-56555076D01*
X103654820Y-56555076D02*
X103464344Y-56745552D01*
X103464344Y-56745552D02*
X103369106Y-56936028D01*
X103369106Y-56936028D02*
X103273868Y-57316980D01*
X103273868Y-57316980D02*
X103273868Y-57602695D01*
X103273868Y-57602695D02*
X103369106Y-57983647D01*
X103369106Y-57983647D02*
X103464344Y-58174123D01*
X103464344Y-58174123D02*
X103654820Y-58364600D01*
X103654820Y-58364600D02*
X103940535Y-58459838D01*
X103940535Y-58459838D02*
X104416725Y-58459838D01*
X107083392Y-70080314D02*
X107273868Y-69985076D01*
X107273868Y-69985076D02*
X107464344Y-69794600D01*
X107464344Y-69794600D02*
X107750058Y-69508885D01*
X107750058Y-69508885D02*
X107940535Y-69413647D01*
X107940535Y-69413647D02*
X108131011Y-69413647D01*
X108035773Y-69889838D02*
X108226249Y-69794600D01*
X108226249Y-69794600D02*
X108416725Y-69604123D01*
X108416725Y-69604123D02*
X108511963Y-69223171D01*
X108511963Y-69223171D02*
X108511963Y-68556504D01*
X108511963Y-68556504D02*
X108416725Y-68175552D01*
X108416725Y-68175552D02*
X108226249Y-67985076D01*
X108226249Y-67985076D02*
X108035773Y-67889838D01*
X108035773Y-67889838D02*
X107654820Y-67889838D01*
X107654820Y-67889838D02*
X107464344Y-67985076D01*
X107464344Y-67985076D02*
X107273868Y-68175552D01*
X107273868Y-68175552D02*
X107178630Y-68556504D01*
X107178630Y-68556504D02*
X107178630Y-69223171D01*
X107178630Y-69223171D02*
X107273868Y-69604123D01*
X107273868Y-69604123D02*
X107464344Y-69794600D01*
X107464344Y-69794600D02*
X107654820Y-69889838D01*
X107654820Y-69889838D02*
X108035773Y-69889838D01*
X106416725Y-69794600D02*
X106131011Y-69889838D01*
X106131011Y-69889838D02*
X105654820Y-69889838D01*
X105654820Y-69889838D02*
X105464344Y-69794600D01*
X105464344Y-69794600D02*
X105369106Y-69699361D01*
X105369106Y-69699361D02*
X105273868Y-69508885D01*
X105273868Y-69508885D02*
X105273868Y-69318409D01*
X105273868Y-69318409D02*
X105369106Y-69127933D01*
X105369106Y-69127933D02*
X105464344Y-69032695D01*
X105464344Y-69032695D02*
X105654820Y-68937457D01*
X105654820Y-68937457D02*
X106035773Y-68842219D01*
X106035773Y-68842219D02*
X106226249Y-68746980D01*
X106226249Y-68746980D02*
X106321487Y-68651742D01*
X106321487Y-68651742D02*
X106416725Y-68461266D01*
X106416725Y-68461266D02*
X106416725Y-68270790D01*
X106416725Y-68270790D02*
X106321487Y-68080314D01*
X106321487Y-68080314D02*
X106226249Y-67985076D01*
X106226249Y-67985076D02*
X106035773Y-67889838D01*
X106035773Y-67889838D02*
X105559582Y-67889838D01*
X105559582Y-67889838D02*
X105273868Y-67985076D01*
X104416725Y-68842219D02*
X103750058Y-68842219D01*
X103464344Y-69889838D02*
X104416725Y-69889838D01*
X104416725Y-69889838D02*
X104416725Y-67889838D01*
X104416725Y-67889838D02*
X103464344Y-67889838D01*
X185633333Y-59454819D02*
X185633333Y-60169104D01*
X185633333Y-60169104D02*
X185680952Y-60311961D01*
X185680952Y-60311961D02*
X185776190Y-60407200D01*
X185776190Y-60407200D02*
X185919047Y-60454819D01*
X185919047Y-60454819D02*
X186014285Y-60454819D01*
X184728571Y-59788152D02*
X184728571Y-60454819D01*
X184966666Y-59407200D02*
X185204761Y-60121485D01*
X185204761Y-60121485D02*
X184585714Y-60121485D01*
X179509523Y-118954819D02*
X179509523Y-119669104D01*
X179509523Y-119669104D02*
X179557142Y-119811961D01*
X179557142Y-119811961D02*
X179652380Y-119907200D01*
X179652380Y-119907200D02*
X179795237Y-119954819D01*
X179795237Y-119954819D02*
X179890475Y-119954819D01*
X178509523Y-119954819D02*
X179080951Y-119954819D01*
X178795237Y-119954819D02*
X178795237Y-118954819D01*
X178795237Y-118954819D02*
X178890475Y-119097676D01*
X178890475Y-119097676D02*
X178985713Y-119192914D01*
X178985713Y-119192914D02*
X179080951Y-119240533D01*
X178176189Y-118954819D02*
X177557142Y-118954819D01*
X177557142Y-118954819D02*
X177890475Y-119335771D01*
X177890475Y-119335771D02*
X177747618Y-119335771D01*
X177747618Y-119335771D02*
X177652380Y-119383390D01*
X177652380Y-119383390D02*
X177604761Y-119431009D01*
X177604761Y-119431009D02*
X177557142Y-119526247D01*
X177557142Y-119526247D02*
X177557142Y-119764342D01*
X177557142Y-119764342D02*
X177604761Y-119859580D01*
X177604761Y-119859580D02*
X177652380Y-119907200D01*
X177652380Y-119907200D02*
X177747618Y-119954819D01*
X177747618Y-119954819D02*
X178033332Y-119954819D01*
X178033332Y-119954819D02*
X178128570Y-119907200D01*
X178128570Y-119907200D02*
X178176189Y-119859580D01*
X185333333Y-108154819D02*
X185333333Y-108869104D01*
X185333333Y-108869104D02*
X185380952Y-109011961D01*
X185380952Y-109011961D02*
X185476190Y-109107200D01*
X185476190Y-109107200D02*
X185619047Y-109154819D01*
X185619047Y-109154819D02*
X185714285Y-109154819D01*
X184904761Y-108250057D02*
X184857142Y-108202438D01*
X184857142Y-108202438D02*
X184761904Y-108154819D01*
X184761904Y-108154819D02*
X184523809Y-108154819D01*
X184523809Y-108154819D02*
X184428571Y-108202438D01*
X184428571Y-108202438D02*
X184380952Y-108250057D01*
X184380952Y-108250057D02*
X184333333Y-108345295D01*
X184333333Y-108345295D02*
X184333333Y-108440533D01*
X184333333Y-108440533D02*
X184380952Y-108583390D01*
X184380952Y-108583390D02*
X184952380Y-109154819D01*
X184952380Y-109154819D02*
X184333333Y-109154819D01*
X103433333Y-100854819D02*
X103433333Y-101569104D01*
X103433333Y-101569104D02*
X103480952Y-101711961D01*
X103480952Y-101711961D02*
X103576190Y-101807200D01*
X103576190Y-101807200D02*
X103719047Y-101854819D01*
X103719047Y-101854819D02*
X103814285Y-101854819D01*
X103052380Y-100854819D02*
X102433333Y-100854819D01*
X102433333Y-100854819D02*
X102766666Y-101235771D01*
X102766666Y-101235771D02*
X102623809Y-101235771D01*
X102623809Y-101235771D02*
X102528571Y-101283390D01*
X102528571Y-101283390D02*
X102480952Y-101331009D01*
X102480952Y-101331009D02*
X102433333Y-101426247D01*
X102433333Y-101426247D02*
X102433333Y-101664342D01*
X102433333Y-101664342D02*
X102480952Y-101759580D01*
X102480952Y-101759580D02*
X102528571Y-101807200D01*
X102528571Y-101807200D02*
X102623809Y-101854819D01*
X102623809Y-101854819D02*
X102909523Y-101854819D01*
X102909523Y-101854819D02*
X103004761Y-101807200D01*
X103004761Y-101807200D02*
X103052380Y-101759580D01*
D11*
X186670000Y-55790000D02*
X186670000Y-76370000D01*
X186670000Y-76370000D02*
X195790000Y-76370000D01*
X187980000Y-57090000D02*
X187980000Y-75070000D01*
X187980000Y-75070000D02*
X194480000Y-75070000D01*
X194480000Y-57090000D02*
X187980000Y-57090000D01*
X194480000Y-64030000D02*
X194480000Y-57090000D01*
X194480000Y-68130000D02*
X195790000Y-68130000D01*
X194480000Y-75070000D02*
X194480000Y-68130000D01*
X194600000Y-61000000D02*
X195600000Y-60500000D01*
X195600000Y-60500000D02*
X195600000Y-61500000D01*
X195600000Y-61500000D02*
X194600000Y-61000000D01*
X195790000Y-55790000D02*
X186670000Y-55790000D01*
X195790000Y-64030000D02*
X194480000Y-64030000D01*
X195790000Y-76370000D02*
X195790000Y-55790000D01*
D12*
X173675000Y-122600000D02*
X173675000Y-123100000D01*
X173675000Y-122600000D02*
X174175000Y-122600000D01*
X173675000Y-128600000D02*
X173675000Y-128100000D01*
X173675000Y-128600000D02*
X174175000Y-128600000D01*
X183875000Y-122600000D02*
X183375000Y-122600000D01*
X183875000Y-122600000D02*
X183875000Y-123100000D01*
X183875000Y-128600000D02*
X183375000Y-128600000D01*
X183875000Y-128600000D02*
X183875000Y-128100000D01*
D11*
X186170000Y-101690000D02*
X186170000Y-122270000D01*
X186170000Y-122270000D02*
X195290000Y-122270000D01*
X187480000Y-102990000D02*
X187480000Y-120970000D01*
X187480000Y-120970000D02*
X193980000Y-120970000D01*
X193980000Y-102990000D02*
X187480000Y-102990000D01*
X193980000Y-109930000D02*
X193980000Y-102990000D01*
X193980000Y-114030000D02*
X195290000Y-114030000D01*
X193980000Y-120970000D02*
X193980000Y-114030000D01*
X194100000Y-106900000D02*
X195100000Y-106400000D01*
X195100000Y-106400000D02*
X195100000Y-107400000D01*
X195100000Y-107400000D02*
X194100000Y-106900000D01*
X195290000Y-101690000D02*
X186170000Y-101690000D01*
X195290000Y-109930000D02*
X193980000Y-109930000D01*
X195290000Y-122270000D02*
X195290000Y-101690000D01*
X97330000Y-102260000D02*
X97330000Y-111380000D01*
X97330000Y-111380000D02*
X117910000Y-111380000D01*
X98630000Y-103570000D02*
X98630000Y-110070000D01*
X98630000Y-110070000D02*
X105570000Y-110070000D01*
X105570000Y-110070000D02*
X105570000Y-111380000D01*
X109670000Y-110070000D02*
X116610000Y-110070000D01*
X109670000Y-111380000D02*
X109670000Y-110070000D01*
X112200000Y-112770000D02*
X112700000Y-111770000D01*
X112700000Y-111770000D02*
X113200000Y-112770000D01*
X113200000Y-112770000D02*
X112200000Y-112770000D01*
X116610000Y-103570000D02*
X98630000Y-103570000D01*
X116610000Y-110070000D02*
X116610000Y-103570000D01*
X117910000Y-102260000D02*
X97330000Y-102260000D01*
X117910000Y-111380000D02*
X117910000Y-102260000D01*
%LPC*%
D13*
X130660000Y-113100000D03*
X130660000Y-115640000D03*
X130660000Y-118180000D03*
X130660000Y-120720000D03*
X130660000Y-123260000D03*
X130660000Y-125800000D03*
X130660000Y-128340000D03*
X130660000Y-130880000D03*
X130660000Y-133420000D03*
X130660000Y-135960000D03*
X130660000Y-138500000D03*
X130660000Y-141040000D03*
X130660000Y-143580000D03*
X130660000Y-146120000D03*
X145900000Y-146120000D03*
X145900000Y-143580000D03*
X145900000Y-141040000D03*
X145900000Y-138500000D03*
X145900000Y-135960000D03*
X145900000Y-133420000D03*
X145900000Y-130880000D03*
X145900000Y-128340000D03*
X145900000Y-125800000D03*
X145900000Y-123260000D03*
X145900000Y-120720000D03*
X145900000Y-118180000D03*
X145900000Y-115640000D03*
X145900000Y-113100000D03*
D14*
X100611400Y-71251400D03*
X107611400Y-71251400D03*
X100620000Y-94120000D03*
X107620000Y-94120000D03*
D15*
X112500000Y-145800000D03*
X112500000Y-143300000D03*
X112500000Y-140800000D03*
D14*
X100611400Y-59821400D03*
X107611400Y-59821400D03*
D16*
X130060000Y-85852000D03*
X130060000Y-88392000D03*
X130060000Y-90932000D03*
X130060000Y-93472000D03*
X130060000Y-96012000D03*
X130060000Y-98552000D03*
X155460000Y-98552000D03*
X155460000Y-96012000D03*
X155460000Y-93472000D03*
X155460000Y-90932000D03*
X155460000Y-88392000D03*
X155460000Y-85852000D03*
X145300000Y-76200000D03*
X142760000Y-76200000D03*
X140220000Y-76200000D03*
D14*
X100611400Y-82681400D03*
X107611400Y-82681400D03*
D15*
X175500000Y-137400000D03*
X178000000Y-137400000D03*
X180500000Y-137400000D03*
X183000000Y-137400000D03*
X118415000Y-72958000D03*
X118415000Y-70458000D03*
X118415000Y-67958000D03*
D17*
X100200000Y-120790000D03*
D14*
X102740000Y-120790000D03*
X100200000Y-123330000D03*
X102740000Y-123330000D03*
X100200000Y-125870000D03*
X102740000Y-125870000D03*
X100200000Y-128410000D03*
X102740000Y-128410000D03*
X100200000Y-130950000D03*
X102740000Y-130950000D03*
X100200000Y-133490000D03*
X102740000Y-133490000D03*
X100200000Y-136030000D03*
X102740000Y-136030000D03*
X100200000Y-138570000D03*
X102740000Y-138570000D03*
D18*
X175400000Y-115710000D03*
D19*
X175400000Y-113170000D03*
X175400000Y-110630000D03*
X175400000Y-108090000D03*
X175400000Y-105550000D03*
X175400000Y-103010000D03*
X175400000Y-100470000D03*
X175400000Y-97930000D03*
X175400000Y-95390000D03*
X175400000Y-92850000D03*
X175400000Y-90310000D03*
X175400000Y-87770000D03*
X175400000Y-85230000D03*
X175400000Y-82690000D03*
X175400000Y-80150000D03*
X175400000Y-77610000D03*
X175400000Y-75070000D03*
X175400000Y-72530000D03*
X175400000Y-69990000D03*
X175400000Y-67450000D03*
X175400000Y-64910000D03*
X175400000Y-62370000D03*
X175400000Y-59830000D03*
X175400000Y-57290000D03*
X160160000Y-57290000D03*
X160160000Y-59830000D03*
X160160000Y-62370000D03*
X160160000Y-64910000D03*
X160160000Y-67450000D03*
X160160000Y-69990000D03*
X160160000Y-72530000D03*
X160160000Y-75070000D03*
X160160000Y-77610000D03*
X160160000Y-80150000D03*
X160160000Y-82690000D03*
X160160000Y-85230000D03*
X160160000Y-87770000D03*
X160160000Y-90310000D03*
X160160000Y-92850000D03*
X160160000Y-95390000D03*
X160160000Y-97930000D03*
X160160000Y-100470000D03*
X160160000Y-103010000D03*
X160160000Y-105550000D03*
X160160000Y-108090000D03*
X160160000Y-110630000D03*
X160160000Y-113170000D03*
X160160000Y-115710000D03*
D15*
X117551400Y-79946800D03*
X120051400Y-79946800D03*
D16*
X153100000Y-57200000D03*
X150560000Y-57200000D03*
X148020000Y-57200000D03*
X145480000Y-57200000D03*
X142940000Y-57200000D03*
X140400000Y-57200000D03*
X137860000Y-57200000D03*
X135320000Y-57200000D03*
X132780000Y-57200000D03*
X126303000Y-58216000D03*
X126303000Y-60756000D03*
X126303000Y-63296000D03*
X126303000Y-65836000D03*
X126303000Y-68376000D03*
X126303000Y-70916000D03*
D20*
X192500000Y-61000000D03*
D14*
X189960000Y-61000000D03*
X192500000Y-63540000D03*
X189960000Y-63540000D03*
X192500000Y-66080000D03*
X189960000Y-66080000D03*
X192500000Y-68620000D03*
X189960000Y-68620000D03*
X192500000Y-71160000D03*
X189960000Y-71160000D03*
D15*
X181275000Y-125600000D03*
X178775000Y-125600000D03*
X176275000Y-125600000D03*
D20*
X192000000Y-106900000D03*
D14*
X189460000Y-106900000D03*
X192000000Y-109440000D03*
X189460000Y-109440000D03*
X192000000Y-111980000D03*
X189460000Y-111980000D03*
X192000000Y-114520000D03*
X189460000Y-114520000D03*
X192000000Y-117060000D03*
X189460000Y-117060000D03*
D21*
X112700000Y-108090000D03*
D14*
X112700000Y-105550000D03*
X110160000Y-108090000D03*
X110160000Y-105550000D03*
X107620000Y-108090000D03*
X107620000Y-105550000D03*
X105080000Y-108090000D03*
X105080000Y-105550000D03*
X102540000Y-108090000D03*
X102540000Y-105550000D03*
%LPD*%
M02*
